<?xml version="1.0" standalone="yes"?>
<svg xmlns="http://www.w3.org/2000/svg">
	<path style="fill:#fefffe; stroke:none;" d="M0 0L0 193C16.2551 187.711 32.8012 183.371 49 177.999C57.3523 175.23 66.2511 170.159 74.9992 169.008C80.4328 168.294 82.5216 173.287 87.0147 175.142C93.4803 177.812 101.42 174.172 107 171C104.492 160.153 106.694 152.839 107.83 142C110.703 114.589 116.411 75.3962 138 56.108C146.116 48.8571 160.182 48.9477 169.996 43.6018C178.362 39.045 183.316 25.7236 194 25.6034C200.873 25.5261 206.281 32.3566 208.756 38C213.786 49.4683 218.288 71.9649 208 82C208.991 87.8528 210.695 92.9622 209.486 99C208.438 104.239 204.493 112.794 205.788 118C207.054 123.093 213.408 127.162 216.7 131C224.997 140.676 235.546 150.769 239.87 163C242.433 170.249 240.107 183.234 230.059 183.149C223.907 183.097 230.91 170.017 223 167L222 176C214.846 170.688 215.671 163.756 211.272 157.004C206.779 150.105 197.663 146.096 190 144C187.553 152.15 192.767 155.685 197.359 162C204.144 171.332 211.854 181.868 217.282 192C225.15 206.689 222.979 228.783 226 245C231.124 245.648 236.838 247.232 242 246.752C244.86 246.485 248.056 244.617 250.681 246.647C255.644 250.484 250.423 260.996 247.718 264.867C243.151 271.401 217.878 279.08 211.094 274.397C203.818 269.374 206.042 261.299 204.482 254C202.878 246.495 197.098 241.199 194.785 234C190.16 219.606 198.662 201.19 180 195C184.068 219.667 152.383 235.95 137 250L137 251C140.723 253.925 145.172 255.785 148.816 258.785C152.41 261.746 157.399 268.766 150.941 271.651C140 276.538 129.639 269.377 120 265.874C111.967 262.955 101.459 262.715 102.712 251C104.129 237.758 122.702 229.714 129.081 218C135.204 206.756 140.428 202.155 152 197L144 167L130.871 181.411L117 181.184L99.0008 185.919L86.9414 203.618L65 209.243L21 224.639L11 223.437L0 226L0 312L312 312L312 0L0 0z" />
	<path style="fill:#b8bab8; stroke:none;" d="M188 27L188 28L196 26L188 27z" />
	<path style="fill:#5ba75d; stroke:none;" d="M191 26L192 27L191 26z" />
	<path style="fill:#5a625a; stroke:none;" d="M192 26L192 27L196 27L192 26z" />
	<path style="fill:#5ba75d; stroke:none;" d="M196 26L197 27L196 26z" />
	<path style="fill:#b8bab8; stroke:none;" d="M197.667 26.3333L198.333 26.6667L197.667 26.3333z" />
	<path style="fill:#5a625a; stroke:none;" d="M190 27C184.134 30.1288 179.643 33.7595 177 40L178 40L191 28L190 27z" />
	<path style="fill:#030303; stroke:none;" d="M70 172C74.8516 181.483 80.0663 193.305 81 204C91.7859 202.045 87.4557 193.538 94.1335 187.684C103.577 179.405 119.341 179.112 131 181L141.172 166.105L133.275 160.077L128.145 149L140 122L140.39 156L146.741 169L153 199C133.731 202.318 131.685 221.135 119 232.91C112.338 239.093 101.383 244.98 104.434 255.985C106.227 262.452 113.584 262.782 119 264.137C126.721 266.07 143.211 277.379 151.381 269.357C159.428 261.456 134.067 256.262 137.752 248.965C140.581 243.36 148.182 239.377 153 235.664C160.298 230.04 168.781 222.272 174.239 214.826C179.222 208.03 178.155 199.749 180 192C184.156 194.738 189.46 197.813 192.08 202.184C197.308 210.907 193.675 223.438 196.043 233C197.794 240.07 203.387 245.024 205.236 252C206.864 258.141 205.186 266.304 209.703 271.467C215.208 277.759 221.895 273.222 228 271.06C231.584 269.791 235.399 270.772 238.999 269.525C248.826 266.124 250.994 256.215 251 247C243.919 247.324 231.168 251.275 225.6 244.686C222.492 241.008 223.251 234.471 222.715 230C221.346 218.595 220.65 205.98 217.204 195C211.414 176.551 185.362 161.501 189 142C197.975 144.566 208.19 149.707 213.142 158C216.476 163.584 215.631 169.397 221 174L222 165C231.367 168.717 228.397 174.126 227 182C237.817 182.616 240.68 172.779 238.815 164C236.137 151.398 222.883 139.392 214.711 130C211.633 126.463 205.843 122.669 204.556 118C203.597 114.519 206.131 109.501 206.75 106C208.39 96.7278 209.086 88.7898 205 80C211.23 78.9603 211.322 71.3801 212.088 66C213.643 55.074 208.931 23.7319 192 27.4892C182.286 29.6448 179.04 40.0479 170.985 44.591C167.113 46.775 162.214 50.649 157.961 51.7006C152.54 53.0409 146.033 51.8187 141.17 55.0092C122.772 67.0791 115.513 100.678 111.464 121C109.073 133 107.061 146.801 106.184 159C105.904 162.9 109.23 169.16 106.438 172.351C93.9696 186.598 82.2868 167.399 70 172z" />
	<path style="fill:#5a625a; stroke:none;" d="M197 27L197 28L206 34L197 27z" />
	<path style="fill:#5ba75d; stroke:none;" d="M199 27L200 28L199 27z" />
	<path style="fill:#b8bab8; stroke:none;" d="M200 27L201 28L200 27M184 30L187 29L184 30M201 28L202 29L201 28z" />
	<path style="fill:#5ba75d; stroke:none;" d="M185 29L186 30L185 29z" />
	<path style="fill:#b8bab8; stroke:none;" d="M202 29L202 30L204 32L205 32L202 29M183 30L184 31L183 30z" />
	<path style="fill:#5ba75d; stroke:none;" d="M203 30L204 31L203 30z" />
	<path style="fill:#b8bab8; stroke:none;" d="M182 31L183 32L182 31M181 32L182 33L181 32M205 32L206 33L205 32M180 33L181 34L180 33M206 33L210 45L211 45L206 33M179.333 34.6667L179.667 35.3333L179.333 34.6667z" />
	<path style="fill:#5ba75d; stroke:none;" d="M206 34L207 35L206 34z" />
	<path style="fill:#5a625a; stroke:none;" d="M206.333 35.6667L206.667 36.3333L206.333 35.6667z" />
	<path style="fill:#b8bab8; stroke:none;" d="M178 36L179 37L178 36M177 37L178 38L177 37z" />
	<path style="fill:#5a625a; stroke:none;" d="M207.333 37.6667L207.667 38.3333L207.333 37.6667z" />
	<path style="fill:#b8bab8; stroke:none;" d="M176 38L177 39L176 38z" />
	<path style="fill:#5ba75d; stroke:none;" d="M176 39L177 40L176 39z" />
	<path style="fill:#5a625a; stroke:none;" d="M208.333 39.6667L208.667 40.3333L208.333 39.6667z" />
	<path style="fill:#b8bab8; stroke:none;" d="M174 40L161 49C165.278 47.0648 172.722 44.8817 174 40z" />
	<path style="fill:#5ba75d; stroke:none;" d="M175 40L176 41L175 40z" />
	<path style="fill:#5a625a; stroke:none;" d="M172 44L176 41L172 44M209 42L209 45L210 45L209 42M170.667 44.3333L171.333 44.6667L170.667 44.3333M168.667 45.3333L169.333 45.6667L168.667 45.3333M210 45L211 49L212 49L210 45M165.667 46.3333L166.333 46.6667L165.667 46.3333z" />
	<path style="fill:#b8bab8; stroke:none;" d="M211.333 46.6667L211.667 47.3333L211.333 46.6667z" />
	<path style="fill:#5a625a; stroke:none;" d="M164 47L165 48L164 47M162.667 48.3333L163.333 48.6667L162.667 48.3333z" />
	<path style="fill:#b8bab8; stroke:none;" d="M212 48L213 49L212 48z" />
	<path style="fill:#5a625a; stroke:none;" d="M161 49L144.004 52.652L132 63C141.935 58.1576 145.108 53.2133 156.995 51.9954C159.384 51.7506 161.42 51.545 161 49z" />
	<path style="fill:#5ba75d; stroke:none;" d="M212 49L213 50L212 49z" />
	<path style="fill:#b8bab8; stroke:none;" d="M152 50L152 51L161 51L152 50z" />
	<path style="fill:#5a625a; stroke:none;" d="M212 50L212 65L213 65L212 50z" />
	<path style="fill:#b8bab8; stroke:none;" d="M213 50L212 56L213 56L213 50M145 51L145 52L152 52L145 51M142.667 52.3333L143.333 52.6667L142.667 52.3333M140.667 53.3333L141.333 53.6667L140.667 53.3333M139 54L140 55L139 54z" />
	<path style="fill:#5ba75d; stroke:none;" d="M212 54L213 55L212 54z" />
	<path style="fill:#b8bab8; stroke:none;" d="M138 55L139 56L138 55M137 56L136 58L137 56M211.333 56.6667L211.667 57.3333L211.333 56.6667z" />
	<path style="fill:#5ba75d; stroke:none;" d="M137 57L138 58L137 57z" />
	<path style="fill:#b8bab8; stroke:none;" d="M135 58L134 60L135 58M212 58L214 64L215 64L212 58z" />
	<path style="fill:#5ba75d; stroke:none;" d="M135 59L136 60L135 59M212 59L213 60L212 59z" />
	<path style="fill:#b8bab8; stroke:none;" d="M133 60L134 61L133 60z" />
	<path style="fill:#5ba75d; stroke:none;" d="M213 60L214 61L213 60z" />
	<path style="fill:#b8bab8; stroke:none;" d="M132 61L133 62L132 61M131 62L129 65L131 62z" />
	<path style="fill:#5ba75d; stroke:none;" d="M131 63L132 64L131 63z" />
	<path style="fill:#5a625a; stroke:none;" d="M130 64L124 79L125 79L130 64z" />
	<path style="fill:#b8bab8; stroke:none;" d="M213 64L211 75L212 75L213 64z" />
	<path style="fill:#5ba75d; stroke:none;" d="M129 65L130 66L129 65M212 65L213 66L212 65z" />
	<path style="fill:#b8bab8; stroke:none;" d="M128 66L129 67L128 66z" />
	<path style="fill:#5a625a; stroke:none;" d="M211.333 66.6667L211.667 67.3333L211.333 66.6667z" />
	<path style="fill:#b8bab8; stroke:none;" d="M127 67L127 72L128 72L127 67z" />
	<path style="fill:#5a625a; stroke:none;" d="M211.333 70.6667L211.667 71.3333L211.333 70.6667z" />
	<path style="fill:#b8bab8; stroke:none;" d="M126.333 72.6667L126.667 73.3333L126.333 72.6667z" />
	<path style="fill:#5a625a; stroke:none;" d="M210 73L210 78L211 78L210 73z" />
	<path style="fill:#b8bab8; stroke:none;" d="M125.333 74.6667L125.667 75.3333L125.333 74.6667M124.333 76.6667L124.667 77.3333L124.333 76.6667M123 78L124 79L123 78z" />
	<path style="fill:#5ba75d; stroke:none;" d="M210 78L211 79L210 78M123 79L124 80L123 79z" />
	<path style="fill:#5a625a; stroke:none;" d="M209 79L205 80L206 84L207 84L210 80L209 79z" />
	<path style="fill:#b8bab8; stroke:none;" d="M210 79L207 84L208 84L210 79M122 80L123 81L122 80z" />
	<path style="fill:#5a625a; stroke:none;" d="M123 80L124 81L123 80z" />
	<path style="fill:#5ba75d; stroke:none;" d="M209 80L210 81L209 80M122 81L123 82L122 81z" />
	<path style="fill:#b8bab8; stroke:none;" d="M121.333 82.6667L121.667 83.3333L121.333 82.6667z" />
	<path style="fill:#5a625a; stroke:none;" d="M122.333 82.6667L122.667 83.3333L122.333 82.6667z" />
	<path style="fill:#5ba75d; stroke:none;" d="M121 84L122 85L121 84M207 84L208 85L207 84z" />
	<path style="fill:#b8bab8; stroke:none;" d="M120 85L121 86L120 85z" />
	<path style="fill:#5a625a; stroke:none;" d="M121 85L122 86L121 85M207 85L208 86L207 85z" />
	<path style="fill:#b8bab8; stroke:none;" d="M208 85L208 103L209 103C210.054 97.3245 211.42 90.0061 208 85z" />
	<path style="fill:#5a625a; stroke:none;" d="M120 86L120 89L121 89L120 86z" />
	<path style="fill:#b8bab8; stroke:none;" d="M119.333 87.6667L119.667 88.3333L119.333 87.6667z" />
	<path style="fill:#5a625a; stroke:none;" d="M208 87L208 95L209 95L208 87z" />
	<path style="fill:#5ba75d; stroke:none;" d="M119 89L120 90L119 89z" />
	<path style="fill:#b8bab8; stroke:none;" d="M118.333 90.6667L118.667 91.3333L118.333 90.6667z" />
	<path style="fill:#5a625a; stroke:none;" d="M119 90L120 91L119 90M118 92L112 117L113 117C115.193 110.271 120.662 98.8891 118 92z" />
	<path style="fill:#b8bab8; stroke:none;" d="M117.333 94.6667L117.667 95.3333L117.333 94.6667z" />
	<path style="fill:#5ba75d; stroke:none;" d="M117 96L118 97L117 96z" />
	<path style="fill:#b8bab8; stroke:none;" d="M116.333 97.6667L116.667 98.3333L116.333 97.6667z" />
	<path style="fill:#5a625a; stroke:none;" d="M208 97L208 100L209 100L208 97z" />
	<path style="fill:#b8bab8; stroke:none;" d="M115 100L115 107L116 107L115 100z" />
	<path style="fill:#5a625a; stroke:none;" d="M207 101L207 104L208 104L207 101z" />
	<path style="fill:#5ba75d; stroke:none;" d="M207 104L208 105L207 104z" />
	<path style="fill:#b8bab8; stroke:none;" d="M207 105L207 109L208 109L207 105M114.333 107.667L114.667 108.333L114.333 107.667z" />
	<path style="fill:#5a625a; stroke:none;" d="M206 107L206 110L207 110L206 107z" />
	<path style="fill:#b8bab8; stroke:none;" d="M113 109L113 112L114 112L113 109M206 110L206 113L207 113L206 110z" />
	<path style="fill:#5a625a; stroke:none;" d="M205 112L204 116L205 116L205 112z" />
	<path style="fill:#b8bab8; stroke:none;" d="M112.333 113.667L112.667 114.333L112.333 113.667z" />
	<path style="fill:#5a625a; stroke:none;" d="M139 113L140 117L141 117L142 113L139 113z" />
	<path style="fill:#b8bab8; stroke:none;" d="M140 114L141 115L140 114M205.333 114.667L205.667 115.333L205.333 114.667M111.333 115.667L111.667 116.333L111.333 115.667z" />
	<path style="fill:#5ba75d; stroke:none;" d="M140 115L141 116L140 115M204 116L205 117L204 116M111 117L112 118L111 117z" />
	<path style="fill:#5a625a; stroke:none;" d="M203 117L216 131L203 117z" />
	<path style="fill:#b8bab8; stroke:none;" d="M204.333 117.667L204.667 118.333L204.333 117.667z" />
	<path style="fill:#5a625a; stroke:none;" d="M111 118L111 121L112 121L111 118z" />
	<path style="fill:#b8bab8; stroke:none;" d="M205 119L206 120L205 119M110.333 120.667L110.667 121.333L110.333 120.667M206 120L207 121L206 120M207 121L208 122L207 121z" />
	<path style="fill:#5ba75d; stroke:none;" d="M110 122L111 123L110 122z" />
	<path style="fill:#5a625a; stroke:none;" d="M139 122L138 129L139 129L139 124L140 124L140 126L141 126L139 122z" />
	<path style="fill:#b8bab8; stroke:none;" d="M208 122L209 123L208 122z" />
	<path style="fill:#5a625a; stroke:none;" d="M110 123L110 128L111 128L110 123z" />
	<path style="fill:#b8bab8; stroke:none;" d="M209 123L210 124L209 123M109 124L109 130L110 130L109 124z" />
	<path style="fill:#5ba75d; stroke:none;" d="M139 124L140 125L139 124z" />
	<path style="fill:#b8bab8; stroke:none;" d="M210 124L211 125L210 124M139 125L140 131L141 131L139 125M211 125L212 126L211 125z" />
	<path style="fill:#5ba75d; stroke:none;" d="M140.333 126.667L140.667 127.333L140.333 126.667z" />
	<path style="fill:#b8bab8; stroke:none;" d="M212 126L213 127L212 126M213 127L214 128L213 127M214 128L215 129L214 128z" />
	<path style="fill:#5ba75d; stroke:none;" d="M138 129L139 130L138 129z" />
	<path style="fill:#fefffe; stroke:none;" d="M139 129C134.457 139.256 120.198 156.666 140 161L139 129z" />
	<path style="fill:#5a625a; stroke:none;" d="M141 129L141 133L142 133L141 129z" />
	<path style="fill:#b8bab8; stroke:none;" d="M215 129L216 130L215 129z" />
	<path style="fill:#5ba75d; stroke:none;" d="M109.333 130.667L109.667 131.333L109.333 130.667z" />
	<path style="fill:#5a625a; stroke:none;" d="M137 130L133 136L134 136L137 130z" />
	<path style="fill:#b8bab8; stroke:none;" d="M138.333 130.667L138.667 131.333L138.333 130.667M216 130L218 132L216 130z" />
	<path style="fill:#5ba75d; stroke:none;" d="M216 131L218 133L216 131z" />
	<path style="fill:#5a625a; stroke:none;" d="M109 132L109 141L110 141L109 132z" />
	<path style="fill:#5ba75d; stroke:none;" d="M136 132L135 134L136 132z" />
	<path style="fill:#b8bab8; stroke:none;" d="M137 132L138 133L137 132z" />
	<path style="fill:#5a625a; stroke:none;" d="M216 132L217 133L216 132z" />
	<path style="fill:#b8bab8; stroke:none;" d="M136 133L137 134L136 133z" />
	<path style="fill:#5ba75d; stroke:none;" d="M141 133L142 134L141 133z" />
	<path style="fill:#5a625a; stroke:none;" d="M217 133L220 136L217 133z" />
	<path style="fill:#b8bab8; stroke:none;" d="M218 133L219 134L218 133M108 134L108 141L109 141L108 134M135 134L136 135L135 134M141 134L141 138L142 138L141 134M219 134L220 135L219 134M134 135L130 143L131 143L134 135M220 135L221 136L220 135z" />
	<path style="fill:#5ba75d; stroke:none;" d="M133 136L134 137L133 136z" />
	<path style="fill:#5a625a; stroke:none;" d="M142 136L143 137L142 136z" />
	<path style="fill:#5ba75d; stroke:none;" d="M220 136L221 137L220 136z" />
	<path style="fill:#5a625a; stroke:none;" d="M132 137L131 140L132 140L132 137M220 137L235 157L236 157C233.18 149.311 226.603 141.75 220 137z" />
	<path style="fill:#b8bab8; stroke:none;" d="M221 137L222 138L221 137z" />
	<path style="fill:#5ba75d; stroke:none;" d="M132 138L133 139L132 138M141 138L142 139L141 138z" />
	<path style="fill:#b8bab8; stroke:none;" d="M222 138L223 139L222 138z" />
	<path style="fill:#5a625a; stroke:none;" d="M141 139L140 158L141 158L141 139z" />
	<path style="fill:#b8bab8; stroke:none;" d="M223 139L224 140L223 139z" />
	<path style="fill:#5a625a; stroke:none;" d="M130 140L128 147L129 147L130 140z" />
	<path style="fill:#b8bab8; stroke:none;" d="M140 140L140 144L141 144L140 140M224 140L225 141L224 140z" />
	<path style="fill:#5ba75d; stroke:none;" d="M108.333 141.667L108.667 142.333L108.333 141.667M130 141L131 142L130 141z" />
	<path style="fill:#b8bab8; stroke:none;" d="M225 141L226 142L225 141z" />
	<path style="fill:#5a625a; stroke:none;" d="M189 144L196 145C193.655 143.137 191.307 141.612 189 144z" />
	<path style="fill:#b8bab8; stroke:none;" d="M226 142L227 143L226 142z" />
	<path style="fill:#5a625a; stroke:none;" d="M108 143L108 147L109 147L108 143z" />
	<path style="fill:#b8bab8; stroke:none;" d="M190 143L191 144L190 143z" />
	<path style="fill:#5ba75d; stroke:none;" d="M191 143L192 144L191 143M226 143L227 144L226 143z" />
	<path style="fill:#b8bab8; stroke:none;" d="M107 144L107 148L108 148L107 144M129 144L129 147L130 147L129 144M139 144L139 147L140 147L139 144M189 144C186.077 153.737 196.034 161.084 201 169L202 169L189 144M192.667 144.333L193.333 144.667L192.667 144.333z" />
	<path style="fill:#5ba75d; stroke:none;" d="M227 144L228 145L227 144z" />
	<path style="fill:#5a625a; stroke:none;" d="M188.333 145.667L188.667 146.333L188.333 145.667z" />
	<path style="fill:#b8bab8; stroke:none;" d="M194.667 145.333L195.333 145.667L194.667 145.333z" />
	<path style="fill:#5ba75d; stroke:none;" d="M196 145L197 146L196 145z" />
	<path style="fill:#5a625a; stroke:none;" d="M197 145L197 146C204.779 149.637 212.573 155.016 214 164L215 164C214.135 154.462 205.725 147.762 197 145z" />
	<path style="fill:#b8bab8; stroke:none;" d="M228 145L229 146L228 145M197.667 146.333L198.333 146.667L197.667 146.333M229 146L230 147L229 146M128 147L129 153L130 153L128 147M138 147L138 157L139 157L138 147z" />
	<path style="fill:#5a625a; stroke:none;" d="M187 147L188 148L187 147z" />
	<path style="fill:#b8bab8; stroke:none;" d="M199 147L200 148L199 147z" />
	<path style="fill:#5ba75d; stroke:none;" d="M200 147L201 148L200 147z" />
	<path style="fill:#b8bab8; stroke:none;" d="M230 147L231 148L230 147z" />
	<path style="fill:#5ba75d; stroke:none;" d="M107 148L108 149L107 148z" />
	<path style="fill:#5a625a; stroke:none;" d="M186 148L186 151L187 151L186 148z" />
	<path style="fill:#b8bab8; stroke:none;" d="M201 148L202 149L201 148M231 148L232 149L231 148M106 149L106 152L107 152L106 149z" />
	<path style="fill:#5a625a; stroke:none;" d="M107.333 149.667L107.667 150.333L107.333 149.667z" />
	<path style="fill:#b8bab8; stroke:none;" d="M202.667 149.333L203.333 149.667L202.667 149.333M232 149L233 150L232 149M204 150L205 151L204 150z" />
	<path style="fill:#5ba75d; stroke:none;" d="M205 150L206 151L205 150z" />
	<path style="fill:#b8bab8; stroke:none;" d="M233.333 150.667L233.667 151.333L233.333 150.667z" />
	<path style="fill:#5a625a; stroke:none;" d="M187 151L188 152L187 151z" />
	<path style="fill:#b8bab8; stroke:none;" d="M206 151L207 152L206 151z" />
	<path style="fill:#5a625a; stroke:none;" d="M106 152L106 157L107 157L106 152M128 152L129 153L128 152M188 152L192 156L192 155L188 152z" />
	<path style="fill:#b8bab8; stroke:none;" d="M207 152L208 153L207 152M234 152L236 154L234 152z" />
	<path style="fill:#5ba75d; stroke:none;" d="M129 153L130 154L129 153M189 153L190 154L189 153z" />
	<path style="fill:#b8bab8; stroke:none;" d="M208 153L209 154L208 153z" />
	<path style="fill:#5ba75d; stroke:none;" d="M234 153L235 154L234 153z" />
	<path style="fill:#b8bab8; stroke:none;" d="M105 154L105 158L106 158L105 154z" />
	<path style="fill:#5a625a; stroke:none;" d="M129 154L130 157L131 157L129 154z" />
	<path style="fill:#b8bab8; stroke:none;" d="M130 154L131 155L130 154M209 154L210 155L209 154z" />
	<path style="fill:#5ba75d; stroke:none;" d="M235 154L236 155L235 154z" />
	<path style="fill:#b8bab8; stroke:none;" d="M131 155L134 160L131 155M210 155L211 156L210 155M236.333 155.667L236.667 156.333L236.333 155.667z" />
	<path style="fill:#5ba75d; stroke:none;" d="M192 156L193 157L192 156z" />
	<path style="fill:#b8bab8; stroke:none;" d="M211 156L212 157L211 156M139 157L140 161L135 160L135 161L142 163L139 157z" />
	<path style="fill:#5a625a; stroke:none;" d="M192 157L193 158L192 157z" />
	<path style="fill:#b8bab8; stroke:none;" d="M212.333 157.667L212.667 158.333L212.333 157.667z" />
	<path style="fill:#5ba75d; stroke:none;" d="M236 157L237 158L236 157z" />
	<path style="fill:#5a625a; stroke:none;" d="M105 158L106 167L107 167L105 158M131.333 158.667L131.667 159.333L131.333 158.667z" />
	<path style="fill:#5ba75d; stroke:none;" d="M140 158L141 159L140 158z" />
	<path style="fill:#5a625a; stroke:none;" d="M193 158L194 159L193 158M236 158L238 162L239 162L236 158z" />
	<path style="fill:#b8bab8; stroke:none;" d="M237 158L238 159L237 158z" />
	<path style="fill:#5a625a; stroke:none;" d="M141.333 159.667L141.667 160.333L141.333 159.667M194 159L195 160L194 159z" />
	<path style="fill:#b8bab8; stroke:none;" d="M238 159L239 160L238 159M104 160L104 163L105 163L104 160z" />
	<path style="fill:#5a625a; stroke:none;" d="M132 160L132 161L135 161L132 160M195.333 160.667L195.667 161.333L195.333 160.667z" />
	<path style="fill:#b8bab8; stroke:none;" d="M213 160L213 163L214 163L213 160z" />
	<path style="fill:#5a625a; stroke:none;" d="M136.667 161.333L137.333 161.667L136.667 161.333M142 161L143 164L140 163C141.726 168.478 139.16 171.524 135 175L135 176C139.904 173.334 142.398 169.544 143 164L144 164L146 170L147 170L142 161z" />
	<path style="fill:#b8bab8; stroke:none;" d="M239 161L240 162L239 161z" />
	<path style="fill:#5a625a; stroke:none;" d="M138.667 162.333L139.333 162.667L138.667 162.333M196 162L197 163L196 162z" />
	<path style="fill:#5ba75d; stroke:none;" d="M239 162L240 163L239 162M141.667 163.333L142.333 163.667L141.667 163.333z" />
	<path style="fill:#5a625a; stroke:none;" d="M197 163L198 164L197 163M239 163L239 169L240 169L239 163z" />
	<path style="fill:#b8bab8; stroke:none;" d="M105.333 164.667L105.667 165.333L105.333 164.667z" />
	<path style="fill:#5ba75d; stroke:none;" d="M143 164L144 165L143 164z" />
	<path style="fill:#5a625a; stroke:none;" d="M198.333 164.667L198.667 165.333L198.333 164.667z" />
	<path style="fill:#5ba75d; stroke:none;" d="M214 164L215 165L214 164z" />
	<path style="fill:#b8bab8; stroke:none;" d="M240 164L240 172L241 172L240 164M143 165L143 168L145 167L145 166L143 165M214 165L215 169L216 169L214 165z" />
	<path style="fill:#5a625a; stroke:none;" d="M222 165L222 167L224 165L222 165M133 166L133 169L136 168L136 167L133 166M199 166L200 167L199 166M215.333 166.667L215.667 167.333L215.333 166.667z" />
	<path style="fill:#b8bab8; stroke:none;" d="M223 166L224 167L223 166z" />
	<path style="fill:#5ba75d; stroke:none;" d="M224 166L225 167L224 166z" />
	<path style="fill:#5a625a; stroke:none;" d="M225 166L225 167L229 175L230 175C229.619 170.801 228.816 168.054 225 166z" />
	<path style="fill:#b8bab8; stroke:none;" d="M106 167L107 171L102 173L102 174C105.656 172.712 108.238 170.835 106 167M145.333 167.667L145.667 168.333L145.333 167.667M222 167L223 168L222 167M225 167L226 168L225 167z" />
	<path style="fill:#5ba75d; stroke:none;" d="M226 167L227 168L226 167z" />
	<path style="fill:#b8bab8; stroke:none;" d="M76 168L76 169L79 169L76 168z" />
	<path style="fill:#5a625a; stroke:none;" d="M107 168L108 169L107 168z" />
	<path style="fill:#b8bab8; stroke:none;" d="M142.333 168.667L142.667 169.333L142.333 168.667z" />
	<path style="fill:#5a625a; stroke:none;" d="M200 168L201 169L200 168M216 168L218 171L216 168z" />
	<path style="fill:#5ba75d; stroke:none;" d="M222 168L223 169L222 168z" />
	<path style="fill:#b8bab8; stroke:none;" d="M227.333 168.667L227.667 169.333L227.333 168.667M72 169L72 170L75 170L72 169z" />
	<path style="fill:#5a625a; stroke:none;" d="M75 169L75 170L80 170L75 169z" />
	<path style="fill:#b8bab8; stroke:none;" d="M80 169C84.312 178.163 92.5384 177.682 101 175L101 174C91.2512 176.228 87.7219 175.476 80 169z" />
	<path style="fill:#5a625a; stroke:none;" d="M108.333 169.667L108.667 170.333L108.333 169.667M201 169L204 175L205 175L201 169M222 169L221 174L218 172L220 175L221 175L222 169z" />
	<path style="fill:#b8bab8; stroke:none;" d="M67 171L67 172L71 171L67 171z" />
	<path style="fill:#5ba75d; stroke:none;" d="M71 170L72 171L71 170z" />
	<path style="fill:#5a625a; stroke:none;" d="M72 170L72 171L75 171L72 170z" />
	<path style="fill:#b8bab8; stroke:none;" d="M141 170L140 173L141 170z" />
	<path style="fill:#5ba75d; stroke:none;" d="M146 170L147 171L146 170z" />
	<path style="fill:#b8bab8; stroke:none;" d="M202 170L203 171L202 170M216 170L217 171L216 170M223 170L223 173L224 173L223 170z" />
	<path style="fill:#5a625a; stroke:none;" d="M55 177L55 178C63.7486 177.245 67.6418 198.029 70 205L60 208L60 209L75 207L75 206L71 206L61 175L67 174L67 175L63 179L69 179L68 174L74 184L75 184L71 171L55 177M80 171L81 172L80 171M107 171L106 173L108 173L107 171z" />
	<path style="fill:#5ba75d; stroke:none;" d="M140 171L141 172L140 171z" />
	<path style="fill:#b8bab8; stroke:none;" d="M146 171L146 175L147 175L146 171z" />
	<path style="fill:#5a625a; stroke:none;" d="M147 171L149 185L150 185L147 171z" />
	<path style="fill:#b8bab8; stroke:none;" d="M203 171L204 172L203 171z" />
	<path style="fill:#5ba75d; stroke:none;" d="M217 171L218 172L217 171z" />
	<path style="fill:#b8bab8; stroke:none;" d="M228.333 171.667L228.667 172.333L228.333 171.667M64.6667 172.333L65.3333 172.667L64.6667 172.333z" />
	<path style="fill:#5ba75d; stroke:none;" d="M66 172L67 173L66 172z" />
	<path style="fill:#5a625a; stroke:none;" d="M81 172L82 173L81 172z" />
	<path style="fill:#b8bab8; stroke:none;" d="M204.333 172.667L204.667 173.333L204.333 172.667M217 172L218 173L217 172z" />
	<path style="fill:#5ba75d; stroke:none;" d="M240.333 172.667L240.667 173.333L240.333 172.667z" />
	<path style="fill:#b8bab8; stroke:none;" d="M61 173L61 174L64 174L61 173z" />
	<path style="fill:#030303; stroke:none;" d="M67 173L68 174L67 173z" />
	<path style="fill:#5a625a; stroke:none;" d="M82 173L82 175L84 175L82 173M104.667 173.333L105.333 173.667L104.667 173.333z" />
	<path style="fill:#b8bab8; stroke:none;" d="M139 173L140 174L139 173M218 173L219 174L218 173z" />
	<path style="fill:#5ba75d; stroke:none;" d="M222 173L221 175L222 173z" />
	<path style="fill:#b8bab8; stroke:none;" d="M56 175L56 176L60 175L56 175z" />
	<path style="fill:#5ba75d; stroke:none;" d="M60 174L61 175L60 174z" />
	<path style="fill:#030303; stroke:none;" d="M61 175L71 206L79 204L68 178L63 179L67 175L61 175z" />
	<path style="fill:#b8bab8; stroke:none;" d="M68 176L71 178L72 178L71 174L68 176z" />
	<path style="fill:#5a625a; stroke:none;" d="M101 174L101 175L104 175L101 174z" />
	<path style="fill:#b8bab8; stroke:none;" d="M138 174L139 175L138 174M205 174L206 175L205 174M219 174L220 175L219 174M222 174L223 175L222 174M228 174L226 180L227 180L228 174M240 174L232 182L232 183C236.081 181.609 240.64 178.8 240 174z" />
	<path style="fill:#fefffe; stroke:none;" d="M69 175C70.214 182.055 73.9592 196.878 80 201L69 175z" />
	<path style="fill:#5a625a; stroke:none;" d="M84 175L85 176L84 175M99.6667 175.333L100.333 175.667L99.6667 175.333z" />
	<path style="fill:#5ba75d; stroke:none;" d="M136 175L137 176L136 175z" />
	<path style="fill:#b8bab8; stroke:none;" d="M137 175L138 176L137 175z" />
	<path style="fill:#5ba75d; stroke:none;" d="M205 175L206 176L205 175z" />
	<path style="fill:#b8bab8; stroke:none;" d="M220.667 175.333L221.333 175.667L220.667 175.333z" />
	<path style="fill:#5a625a; stroke:none;" d="M239 175L240 176L239 175z" />
	<path style="fill:#b8bab8; stroke:none;" d="M53.6667 176.333L54.3333 176.667L53.6667 176.333z" />
	<path style="fill:#5ba75d; stroke:none;" d="M55 176L56 177L55 176M68 176L69 177L68 176z" />
	<path style="fill:#5a625a; stroke:none;" d="M85.6667 176.333L86.3333 176.667L85.6667 176.333M96 176L96 177L99 177L96 176M133 176L131 181L133 176z" />
	<path style="fill:#b8bab8; stroke:none;" d="M134 176L133 181L134 181L136 176L134 176M147 176L147 180L148 180L147 176z" />
	<path style="fill:#5a625a; stroke:none;" d="M205 176L215 191L216 191L205 176z" />
	<path style="fill:#b8bab8; stroke:none;" d="M206.333 176.667L206.667 177.333L206.333 176.667z" />
	<path style="fill:#5a625a; stroke:none;" d="M228 176L229 177L228 176M238 176L234 181L238 176z" />
	<path style="fill:#b8bab8; stroke:none;" d="M47 178L47 179L52 178L47 178z" />
	<path style="fill:#5ba75d; stroke:none;" d="M52 177L52 178L54 179L43 180L43 181L45 181L45 182L37 182L31 186L32 183L29 184L30 186L22 186L22 187L24 187L24 188L19 187L16 188L18 190L13 191L13 190L15 190L15 189L10 190L10 191L12 191L12 192L0 193L0 224L8 224L13 222L16 221L16 225L17 225L16 222L23 222L25 223L26 223L26 222L24 222L24 221L29 222L32 221L30 219L40 218L40 217L38 217L38 216L43 217L43 216L41 216L41 215L49 212L48 216L49 216L50 212L54 213L54 212L52 211L59 211L60 211L62 210L60 209L60 208L70 205C67.4149 194.091 64.3839 177.684 52 177z" />
	<path style="fill:#5a625a; stroke:none;" d="M87 177L87 178L96 178L87 177z" />
	<path style="fill:#5ba75d; stroke:none;" d="M133 177L134 178L133 177M238 177L239 178L238 177M50 178L51 179L50 178z" />
	<path style="fill:#5a625a; stroke:none;" d="M49 179L49 180L54 179L49 179z" />
	<path style="fill:#b8bab8; stroke:none;" d="M69 178L70 179L69 178M207 178L208 179L207 178z" />
	<path style="fill:#5a625a; stroke:none;" d="M227 178L228 179L227 178z" />
	<path style="fill:#b8bab8; stroke:none;" d="M44.6667 179.333L45.3333 179.667L44.6667 179.333z" />
	<path style="fill:#5ba75d; stroke:none;" d="M69 179L70 180L69 179z" />
	<path style="fill:#b8bab8; stroke:none;" d="M72.3333 179.667L72.6667 180.333L72.3333 179.667M208 179L209 180L208 179M37 181L37 182L43 181L37 181z" />
	<path style="fill:#5a625a; stroke:none;" d="M46.6667 180.333L47.3333 180.667L46.6667 180.333M69.3333 180.667L69.6667 181.333L69.3333 180.667z" />
	<path style="fill:#b8bab8; stroke:none;" d="M70.3333 180.667L70.6667 181.333L70.3333 180.667z" />
	<path style="fill:#5a625a; stroke:none;" d="M111 180L111 181L114 181L111 180z" />
	<path style="fill:#5ba75d; stroke:none;" d="M114 180L115 181L114 180z" />
	<path style="fill:#b8bab8; stroke:none;" d="M115 180L115 181L119 181L115 180z" />
	<path style="fill:#5ba75d; stroke:none;" d="M119 180L120 181L119 180z" />
	<path style="fill:#5a625a; stroke:none;" d="M120 180L120 181L130 181L130 180L120 180z" />
	<path style="fill:#5ba75d; stroke:none;" d="M208 180L209 181L208 180M226 180L227 181L226 180M235 180L236 181L235 180M40 181L41 182L40 181z" />
	<path style="fill:#5a625a; stroke:none;" d="M38 182L38 183L45 182L38 182z" />
	<path style="fill:#5ba75d; stroke:none;" d="M73 181L74 182L73 181z" />
	<path style="fill:#5a625a; stroke:none;" d="M108.667 181.333L109.333 181.667L108.667 181.333z" />
	<path style="fill:#5ba75d; stroke:none;" d="M110 181L111 182L110 181z" />
	<path style="fill:#b8bab8; stroke:none;" d="M111 181L111 182L114 182L111 181M120.667 181.333L121.333 181.667L120.667 181.333z" />
	<path style="fill:#5ba75d; stroke:none;" d="M122 181L123 182L122 181z" />
	<path style="fill:#b8bab8; stroke:none;" d="M126 181L126 182L133 182L126 181M148 181L148 184L149 184L148 181M209 181L210 182L209 181M226 181L228 184L226 181z" />
	<path style="fill:#5a625a; stroke:none;" d="M232.667 181.333L233.333 181.667L232.667 181.333z" />
	<path style="fill:#b8bab8; stroke:none;" d="M31 182L31 183L37 183L31 182z" />
	<path style="fill:#5ba75d; stroke:none;" d="M70 182L71 183L70 182z" />
	<path style="fill:#b8bab8; stroke:none;" d="M73.3333 182.667L73.6667 183.333L73.3333 182.667z" />
	<path style="fill:#5a625a; stroke:none;" d="M101 183L101 184L107 183L101 183z" />
	<path style="fill:#5ba75d; stroke:none;" d="M107 182L108 183L107 182z" />
	<path style="fill:#b8bab8; stroke:none;" d="M108.667 182.333L109.333 182.667L108.667 182.333M123 182L123 183L126 183L123 182M210 182L211 183L210 182z" />
	<path style="fill:#5a625a; stroke:none;" d="M227 182L227 183L232 183L232 182L227 182z" />
	<path style="fill:#b8bab8; stroke:none;" d="M30 183L31 184L30 183z" />
	<path style="fill:#5a625a; stroke:none;" d="M31 186L38 184C34.8826 182.737 32.8289 183.176 31 186M70 183L71 184L70 183z" />
	<path style="fill:#b8bab8; stroke:none;" d="M71.3333 183.667L71.6667 184.333L71.3333 183.667M104 183L104 184L107 184L104 183M211 183L212 184L211 183z" />
	<path style="fill:#5ba75d; stroke:none;" d="M228 183L229 184L228 183M230 183L231 184L230 183z" />
	<path style="fill:#b8bab8; stroke:none;" d="M26 184L26 185L29 185L26 184M74 184L75 189L76 189L74 184z" />
	<path style="fill:#5a625a; stroke:none;" d="M90 196L91 196C91.9113 190.31 94.9526 187.523 100 185C93.7484 184.143 90.4839 190.681 90 196z" />
	<path style="fill:#5ba75d; stroke:none;" d="M100 184L101 185L100 184z" />
	<path style="fill:#b8bab8; stroke:none;" d="M101.667 184.333L102.333 184.667L101.667 184.333M212 184L213 187L214 187L212 184M23.6667 185.333L24.3333 185.667L23.6667 185.333z" />
	<path style="fill:#5ba75d; stroke:none;" d="M25.6667 185.333L26.3333 185.667L25.6667 185.333z" />
	<path style="fill:#5a625a; stroke:none;" d="M24 186L24 187L30 186L24 186z" />
	<path style="fill:#5ba75d; stroke:none;" d="M71 185L72 186L71 185z" />
	<path style="fill:#5a625a; stroke:none;" d="M75.3333 185.667L75.6667 186.333L75.3333 185.667z" />
	<path style="fill:#b8bab8; stroke:none;" d="M98.6667 185.333L99.3333 185.667L98.6667 185.333z" />
	<path style="fill:#5ba75d; stroke:none;" d="M149 185L150 186L149 185M212 185L213 186L212 185z" />
	<path style="fill:#b8bab8; stroke:none;" d="M18 186L18 187L22 187L18 186z" />
	<path style="fill:#5a625a; stroke:none;" d="M71 186L72 187L71 186z" />
	<path style="fill:#b8bab8; stroke:none;" d="M72 186L73 190L74 190L72 186M96.6667 186.333L97.3333 186.667L96.6667 186.333M149.333 186.667L149.667 187.333L149.333 186.667z" />
	<path style="fill:#5a625a; stroke:none;" d="M150.333 186.667L150.667 187.333L150.333 186.667z" />
	<path style="fill:#b8bab8; stroke:none;" d="M16.6667 187.333L17.3333 187.667L16.6667 187.333z" />
	<path style="fill:#5a625a; stroke:none;" d="M18 188L18 189L24 188L18 188M76 187L78 195L79 195L76 187z" />
	<path style="fill:#b8bab8; stroke:none;" d="M95 187L96 188L95 187M214 187L215 188L214 187M13 188L13 189L16 189L13 188z" />
	<path style="fill:#5ba75d; stroke:none;" d="M72 188L73 189L72 188z" />
	<path style="fill:#b8bab8; stroke:none;" d="M94 188L95 189L94 188z" />
	<path style="fill:#5ba75d; stroke:none;" d="M150 188L151 189L150 188z" />
	<path style="fill:#b8bab8; stroke:none;" d="M10 189L10 190L13 190L10 189z" />
	<path style="fill:#5a625a; stroke:none;" d="M13 190L13 191L18 190L13 190M72 189L73 190L72 189z" />
	<path style="fill:#5ba75d; stroke:none;" d="M92 189L93 190L92 189z" />
	<path style="fill:#b8bab8; stroke:none;" d="M93 189L94 190L93 189M150 189L151 195L152 195L150 189M215 189L216 190L215 189M7 190L7 191L10 191L7 190z" />
	<path style="fill:#5ba75d; stroke:none;" d="M73 190L74 191L73 190z" />
	<path style="fill:#b8bab8; stroke:none;" d="M76.3333 190.667L76.6667 191.333L76.3333 190.667M92 190L93 191L92 190z" />
	<path style="fill:#5a625a; stroke:none;" d="M151 190L151 193L152 193L151 190z" />
	<path style="fill:#b8bab8; stroke:none;" d="M216 190L217 193L218 193L216 190M4.66667 191.333L5.33333 191.667L4.66667 191.333z" />
	<path style="fill:#5ba75d; stroke:none;" d="M6 191L7 192L6 191z" />
	<path style="fill:#5a625a; stroke:none;" d="M2 193L2 194L12 192L2 193M73 191L74 195L75 195L73 191z" />
	<path style="fill:#b8bab8; stroke:none;" d="M74.3333 191.667L74.6667 192.333L74.3333 191.667z" />
	<path style="fill:#5ba75d; stroke:none;" d="M216 191L217 192L216 191z" />
	<path style="fill:#b8bab8; stroke:none;" d="M1.66667 192.333L2.33333 192.667L1.66667 192.333z" />
	<path style="fill:#5ba75d; stroke:none;" d="M3 192L4 193L3 192z" />
	<path style="fill:#b8bab8; stroke:none;" d="M91.3333 192.667L91.6667 193.333L91.3333 192.667z" />
	<path style="fill:#5a625a; stroke:none;" d="M180 192L178 207L179 207L180 194L190 200L180 192M216 192L217 193L216 192z" />
	<path style="fill:#b8bab8; stroke:none;" d="M77.3333 193.667L77.6667 194.333L77.3333 193.667z" />
	<path style="fill:#5ba75d; stroke:none;" d="M217 193L218 194L217 193z" />
	<path style="fill:#5a625a; stroke:none;" d="M0 194L1 195L0 194z" />
	<path style="fill:#b8bab8; stroke:none;" d="M75 194L76 198L77 198L75 194z" />
	<path style="fill:#5a625a; stroke:none;" d="M152 194L152 199L153 199L152 194z" />
	<path style="fill:#b8bab8; stroke:none;" d="M180 194L180 195L184 196L184 195L180 194z" />
	<path style="fill:#5ba75d; stroke:none;" d="M182 194L183 195L182 194z" />
	<path style="fill:#5a625a; stroke:none;" d="M217 194L218 202L219 202L217 194z" />
	<path style="fill:#b8bab8; stroke:none;" d="M218 194L219 195L218 194z" />
	<path style="fill:#5ba75d; stroke:none;" d="M78 195L79 196L78 195M218 195L219 196L218 195z" />
	<path style="fill:#5a625a; stroke:none;" d="M75.3333 196.667L75.6667 197.333L75.3333 196.667z" />
	<path style="fill:#b8bab8; stroke:none;" d="M78 196L79 200L80 200L78 196z" />
	<path style="fill:#5a625a; stroke:none;" d="M79.3333 196.667L79.6667 197.333L79.3333 196.667z" />
	<path style="fill:#5ba75d; stroke:none;" d="M90.3333 196.667L90.6667 197.333L90.3333 196.667z" />
	<path style="fill:#b8bab8; stroke:none;" d="M184 196L185 197L184 196M219 196L219 199L220 199L219 196M151 197C144.24 200.011 137.379 201.819 134 209L135 209L152 198L151 197M180 197L180 202L181 202L180 197M185 197L186 198L185 197z" />
	<path style="fill:#5a625a; stroke:none;" d="M76 198L79 204L76 205L76 206C81.9996 204.606 88.5275 204.528 91 198L90 198L81 204L81 199L80 199L80 202L76 198z" />
	<path style="fill:#5ba75d; stroke:none;" d="M151 198L152 199L151 198z" />
	<path style="fill:#b8bab8; stroke:none;" d="M186.667 198.333L187.333 198.667L186.667 198.333M77.3333 199.667L77.6667 200.333L77.3333 199.667z" />
	<path style="fill:#5a625a; stroke:none;" d="M148.667 199.333L149.333 199.667L148.667 199.333z" />
	<path style="fill:#b8bab8; stroke:none;" d="M188 199L189 200L188 199M90.3333 200.667L90.6667 201.333L90.3333 200.667z" />
	<path style="fill:#5a625a; stroke:none;" d="M145 200L145 201L148 201L145 200z" />
	<path style="fill:#b8bab8; stroke:none;" d="M189 200L192 203L189 200z" />
	<path style="fill:#5ba75d; stroke:none;" d="M190 200L192 202L190 200z" />
	<path style="fill:#5a625a; stroke:none;" d="M191 200L192 201L191 200z" />
	<path style="fill:#b8bab8; stroke:none;" d="M219.333 200.667L219.667 201.333L219.333 200.667M78.6667 201.333L79.3333 201.667L78.6667 201.333z" />
	<path style="fill:#5a625a; stroke:none;" d="M143.667 201.333L144.333 201.667L143.667 201.333z" />
	<path style="fill:#b8bab8; stroke:none;" d="M88.6667 202.333L89.3333 202.667L88.6667 202.333z" />
	<path style="fill:#5a625a; stroke:none;" d="M141.667 202.333L142.333 202.667L141.667 202.333M192 202L193 210L194 210L192 202z" />
	<path style="fill:#5ba75d; stroke:none;" d="M219 202L220 203L219 202z" />
	<path style="fill:#b8bab8; stroke:none;" d="M86.6667 203.333L87.3333 203.667L86.6667 203.333z" />
	<path style="fill:#5ba75d; stroke:none;" d="M139 203L140 204L139 203z" />
	<path style="fill:#5a625a; stroke:none;" d="M140 203L141 204L140 203z" />
	<path style="fill:#b8bab8; stroke:none;" d="M179 203L179 206L180 206L179 203z" />
	<path style="fill:#5a625a; stroke:none;" d="M219.333 203.667L219.667 204.333L219.333 203.667z" />
	<path style="fill:#b8bab8; stroke:none;" d="M220.333 203.667L220.667 204.333L220.333 203.667z" />
	<path style="fill:#5ba75d; stroke:none;" d="M80 204L81 205L80 204z" />
	<path style="fill:#b8bab8; stroke:none;" d="M84.6667 204.333L85.3333 204.667L84.6667 204.333z" />
	<path style="fill:#5a625a; stroke:none;" d="M138.667 204.333L139.333 204.667L138.667 204.333z" />
	<path style="fill:#5ba75d; stroke:none;" d="M192 204L193 205L192 204z" />
	<path style="fill:#b8bab8; stroke:none;" d="M78 205L79 206L78 205M81 205L81 206L84 206L81 205z" />
	<path style="fill:#5a625a; stroke:none;" d="M137 205L138 206L137 205z" />
	<path style="fill:#b8bab8; stroke:none;" d="M192.333 205.667L192.667 206.333L192.333 205.667z" />
	<path style="fill:#5ba75d; stroke:none;" d="M220 205L220 208L221 208L220 205M69 206L70 207L69 206M75 206L76 207L75 206z" />
	<path style="fill:#b8bab8; stroke:none;" d="M76.6667 206.333L77.3333 206.667L76.6667 206.333z" />
	<path style="fill:#5a625a; stroke:none;" d="M136 206L137 207L136 206z" />
	<path style="fill:#5ba75d; stroke:none;" d="M66.6667 207.333L67.3333 207.667L66.6667 207.333z" />
	<path style="fill:#b8bab8; stroke:none;" d="M68 207L68 208L75 208L68 207z" />
	<path style="fill:#5ba75d; stroke:none;" d="M135 207L136 208L135 207M178 207L179 208L178 207M64 208L65 209L64 208z" />
	<path style="fill:#b8bab8; stroke:none;" d="M65.6667 208.333L66.3333 208.667L65.6667 208.333z" />
	<path style="fill:#5a625a; stroke:none;" d="M135 208L136 209L135 208M177 208L158 232C163.586 227.728 179.071 215.803 177 208z" />
	<path style="fill:#b8bab8; stroke:none;" d="M178 208L178 211L179 211L178 208z" />
	<path style="fill:#5a625a; stroke:none;" d="M219 208L220 209L219 208z" />
	<path style="fill:#b8bab8; stroke:none;" d="M220 208L221 209L220 208z" />
	<path style="fill:#5a625a; stroke:none;" d="M52 211L52 212L59 209L52 211z" />
	<path style="fill:#b8bab8; stroke:none;" d="M62 209L62 210L65 210L62 209z" />
	<path style="fill:#5ba75d; stroke:none;" d="M134 209L135 210L134 209M220 209L221 210L220 209z" />
	<path style="fill:#b8bab8; stroke:none;" d="M60.6667 210.333L61.3333 210.667L60.6667 210.333M133 210L131 214L132 214L133 210z" />
	<path style="fill:#5a625a; stroke:none;" d="M134 210L135 211L134 210z" />
	<path style="fill:#5ba75d; stroke:none;" d="M193.333 210.667L193.667 211.333L193.333 210.667z" />
	<path style="fill:#5a625a; stroke:none;" d="M220 210L220 216L221 216L220 210z" />
	<path style="fill:#5ba75d; stroke:none;" d="M55 211L56 212L55 211z" />
	<path style="fill:#b8bab8; stroke:none;" d="M56 211L56 212L60 212L56 211z" />
	<path style="fill:#5a625a; stroke:none;" d="M133.333 211.667L133.667 212.333L133.333 211.667z" />
	<path style="fill:#b8bab8; stroke:none;" d="M177.333 211.667L177.667 212.333L177.333 211.667M221 211L221 217L222 217L221 211z" />
	<path style="fill:#5a625a; stroke:none;" d="M48 212L41 215L41 216C44.2092 215.962 48.6266 216.201 48 212M50.6667 212.333L51.3333 212.667L50.6667 212.333z" />
	<path style="fill:#b8bab8; stroke:none;" d="M54 212L55 213L54 212M193 212L193 229L194 229L193 212M51.6667 213.333L52.3333 213.667L51.6667 213.333z" />
	<path style="fill:#5a625a; stroke:none;" d="M132 213L131 216L132 213z" />
	<path style="fill:#b8bab8; stroke:none;" d="M176 213L177 214L176 213z" />
	<path style="fill:#5a625a; stroke:none;" d="M194 213L194 229L195 229L194 213z" />
	<path style="fill:#b8bab8; stroke:none;" d="M49.3333 214.667L49.6667 215.333L49.3333 214.667z" />
	<path style="fill:#5ba75d; stroke:none;" d="M131 214L132 215L131 214M175 214L176 215L175 214z" />
	<path style="fill:#b8bab8; stroke:none;" d="M130 215L131 216L130 215M175 215L176 216L175 215z" />
	<path style="fill:#5a625a; stroke:none;" d="M38 216L38 217L41 217L38 216z" />
	<path style="fill:#b8bab8; stroke:none;" d="M43 216L43 217L49 217L43 216z" />
	<path style="fill:#5ba75d; stroke:none;" d="M130 216L131 217L130 216z" />
	<path style="fill:#b8bab8; stroke:none;" d="M174 216L173 218L175 218L174 216z" />
	<path style="fill:#5a625a; stroke:none;" d="M30 219L30 220L38 218L30 219z" />
	<path style="fill:#b8bab8; stroke:none;" d="M40.6667 217.333L41.3333 217.667L40.6667 217.333M129 217L128 220L129 220L129 217z" />
	<path style="fill:#5a625a; stroke:none;" d="M130 217L131 218L130 217z" />
	<path style="fill:#5ba75d; stroke:none;" d="M221 217L222 218L221 217M36 218L37 219L36 218z" />
	<path style="fill:#b8bab8; stroke:none;" d="M37.6667 218.333L38.3333 218.667L37.6667 218.333z" />
	<path style="fill:#5ba75d; stroke:none;" d="M129 218L130 219L129 218z" />
	<path style="fill:#b8bab8; stroke:none;" d="M172 218L173 219L172 218z" />
	<path style="fill:#5a625a; stroke:none;" d="M221 218L221 221L222 221L221 218z" />
	<path style="fill:#b8bab8; stroke:none;" d="M222 218L222 224L223 224L222 218z" />
	<path style="fill:#5ba75d; stroke:none;" d="M33.6667 219.333L34.3333 219.667L33.6667 219.333z" />
	<path style="fill:#b8bab8; stroke:none;" d="M35.6667 219.333L36.3333 219.667L35.6667 219.333z" />
	<path style="fill:#5a625a; stroke:none;" d="M129 219L130 220L129 219z" />
	<path style="fill:#b8bab8; stroke:none;" d="M171 219L172 220L171 219z" />
	<path style="fill:#5a625a; stroke:none;" d="M8 223L13 220L8 223M24 221L24 222L30 221L24 221z" />
	<path style="fill:#b8bab8; stroke:none;" d="M32.6667 220.333L33.3333 220.667L32.6667 220.333z" />
	<path style="fill:#5a625a; stroke:none;" d="M128.333 220.667L128.667 221.333L128.333 220.667z" />
	<path style="fill:#b8bab8; stroke:none;" d="M170 220L171 221L170 220z" />
	<path style="fill:#5a625a; stroke:none;" d="M14.6667 221.333L15.3333 221.667L14.6667 221.333z" />
	<path style="fill:#b8bab8; stroke:none;" d="M30 221L31 222L30 221M127 221L104 245L105 245C110.35 238.299 127.784 230.55 127 221M168.667 221.333L169.333 221.667L168.667 221.333z" />
	<path style="fill:#5a625a; stroke:none;" d="M6 222L7 223L6 222z" />
	<path style="fill:#5ba75d; stroke:none;" d="M9.66667 222.333L10.3333 222.667L9.66667 222.333z" />
	<path style="fill:#b8bab8; stroke:none;" d="M11 222L11 223L15 224L11 222z" />
	<path style="fill:#5a625a; stroke:none;" d="M16 222L21 224L21 223L16 222M23 222L24 223L23 222z" />
	<path style="fill:#b8bab8; stroke:none;" d="M26 222L26 223L30 223L26 222M167 222L168 223L167 222z" />
	<path style="fill:#5a625a; stroke:none;" d="M0 224L0 225L6 224L0 224z" />
	<path style="fill:#b8bab8; stroke:none;" d="M8.66667 223.333L9.33333 223.667L8.66667 223.333M23.6667 223.333L24.3333 223.667L23.6667 223.333z" />
	<path style="fill:#5a625a; stroke:none;" d="M127 223L128 224L127 223z" />
	<path style="fill:#5ba75d; stroke:none;" d="M166 223L167 224L166 223M4 224L5 225L4 224z" />
	<path style="fill:#b8bab8; stroke:none;" d="M5.66667 224.333L6.33333 224.667L5.66667 224.333M20.6667 224.333L21.3333 224.667L20.6667 224.333z" />
	<path style="fill:#5a625a; stroke:none;" d="M126.333 224.667L126.667 225.333L126.333 224.667z" />
	<path style="fill:#b8bab8; stroke:none;" d="M165 224L165 226L167 224L165 224z" />
	<path style="fill:#5a625a; stroke:none;" d="M222 224L222 229L223 229L222 224z" />
	<path style="fill:#b8bab8; stroke:none;" d="M0 225L0 226L5 226L0 225M17 225L17 226L20 226L17 225z" />
	<path style="fill:#5ba75d; stroke:none;" d="M164 225L165 226L164 225z" />
	<path style="fill:#5a625a; stroke:none;" d="M125 226L126 227L125 226z" />
	<path style="fill:#b8bab8; stroke:none;" d="M163 226L162 229L163 226M223 226L223 232L224 232L223 226z" />
	<path style="fill:#5a625a; stroke:none;" d="M124 227L125 228L124 227M123 228L124 229L123 228M122 229L123 230L122 229z" />
	<path style="fill:#b8bab8; stroke:none;" d="M161 229L162 230L161 229z" />
	<path style="fill:#5ba75d; stroke:none;" d="M194 229L195 230L194 229z" />
	<path style="fill:#5a625a; stroke:none;" d="M121 230L122 231L121 230z" />
	<path style="fill:#b8bab8; stroke:none;" d="M160 230L161 231L160 230M194 230L194 234L195 234L194 230z" />
	<path style="fill:#5a625a; stroke:none;" d="M195 230L195 234L196 234L195 230M120 231L121 232L120 231z" />
	<path style="fill:#b8bab8; stroke:none;" d="M159 231L160 232L159 231z" />
	<path style="fill:#5a625a; stroke:none;" d="M119 232L120 233L119 232M156 232L136 250C141.549 246.137 154.369 238.65 156 232z" />
	<path style="fill:#b8bab8; stroke:none;" d="M156 234L159 232L156 234z" />
	<path style="fill:#5ba75d; stroke:none;" d="M223 232L224 233L223 232z" />
	<path style="fill:#5a625a; stroke:none;" d="M118 233L119 234L118 233M223 233L223 239L224 239L223 233M115 236L118 234L115 236z" />
	<path style="fill:#b8bab8; stroke:none;" d="M155 234L156 235L155 234z" />
	<path style="fill:#5ba75d; stroke:none;" d="M195 234L196 235L195 234z" />
	<path style="fill:#b8bab8; stroke:none;" d="M154 235L155 236L154 235M195 235L197 240L198 240L195 235z" />
	<path style="fill:#5a625a; stroke:none;" d="M196.333 235.667L196.667 236.333L196.333 235.667z" />
	<path style="fill:#b8bab8; stroke:none;" d="M224 235L224 240L225 240L224 235z" />
	<path style="fill:#5a625a; stroke:none;" d="M114 236L115 237L114 236z" />
	<path style="fill:#b8bab8; stroke:none;" d="M153 236L154 237L153 236z" />
	<path style="fill:#5a625a; stroke:none;" d="M113 237L114 238L113 237z" />
	<path style="fill:#b8bab8; stroke:none;" d="M152 237L153 238L152 237z" />
	<path style="fill:#5a625a; stroke:none;" d="M197.333 237.667L197.667 238.333L197.333 237.667M111.667 238.333L112.333 238.667L111.667 238.333z" />
	<path style="fill:#b8bab8; stroke:none;" d="M150.667 238.333L151.333 238.667L150.667 238.333z" />
	<path style="fill:#5a625a; stroke:none;" d="M110 239L111 240L110 239z" />
	<path style="fill:#b8bab8; stroke:none;" d="M149 239L150 240L149 239z" />
	<path style="fill:#5a625a; stroke:none;" d="M198 239L199 240L198 239M108 240L106 244L110 240L108 240z" />
	<path style="fill:#5ba75d; stroke:none;" d="M147 240L146 242L147 240z" />
	<path style="fill:#b8bab8; stroke:none;" d="M148 240L149 241L148 240z" />
	<path style="fill:#5ba75d; stroke:none;" d="M198 240L199 241L198 240z" />
	<path style="fill:#5a625a; stroke:none;" d="M224 240C224.335 244.394 225.556 246.291 230 247L230 246L224 240z" />
	<path style="fill:#5ba75d; stroke:none;" d="M107 241L108 242L107 241z" />
	<path style="fill:#b8bab8; stroke:none;" d="M147 241L148 242L147 241M198 241L202 248L203 248L198 241z" />
	<path style="fill:#5a625a; stroke:none;" d="M199.333 241.667L199.667 242.333L199.333 241.667z" />
	<path style="fill:#5ba75d; stroke:none;" d="M106 242L107 243L106 242M145 242L146 243L145 242z" />
	<path style="fill:#b8bab8; stroke:none;" d="M225 242L225 245L226 245L225 242M144.667 243.333L145.333 243.667L144.667 243.333z" />
	<path style="fill:#5a625a; stroke:none;" d="M200 243L202 245L202 243L200 243M105 244L104 249L105 249L105 244z" />
	<path style="fill:#5ba75d; stroke:none;" d="M142 244L143 245L142 244z" />
	<path style="fill:#b8bab8; stroke:none;" d="M143 244L144 245L143 244z" />
	<path style="fill:#5ba75d; stroke:none;" d="M104 245L105 246L104 245z" />
	<path style="fill:#b8bab8; stroke:none;" d="M141.667 245.333L142.333 245.667L141.667 245.333z" />
	<path style="fill:#5a625a; stroke:none;" d="M202 245L203 246L202 245z" />
	<path style="fill:#b8bab8; stroke:none;" d="M226 245L226 246L230 246L226 245M230 246L230 247C238.22 247.068 251.663 243.656 252 254C256.925 242.124 236.789 246.019 230 246M103 246L103 250L104 250L103 246M140 246L141 247L140 246z" />
	<path style="fill:#5a625a; stroke:none;" d="M203.333 246.667L203.667 247.333L203.333 246.667M246 246L246 247L251 247L246 246z" />
	<path style="fill:#b8bab8; stroke:none;" d="M139 247L140 248L139 247z" />
	<path style="fill:#5a625a; stroke:none;" d="M231 247L231 248L238 248L231 247z" />
	<path style="fill:#5ba75d; stroke:none;" d="M244 247L245 248L244 247z" />
	<path style="fill:#5a625a; stroke:none;" d="M245 247L246 248L245 247M251 247L251 255L252 255L251 247z" />
	<path style="fill:#b8bab8; stroke:none;" d="M138 248L139 249L138 248z" />
	<path style="fill:#5ba75d; stroke:none;" d="M203 248L204 249L203 248z" />
	<path style="fill:#5a625a; stroke:none;" d="M239 248L239 249L243 249L239 248z" />
	<path style="fill:#b8bab8; stroke:none;" d="M137 249L138 250L137 249M203 249L204 254L205 254L203 249z" />
	<path style="fill:#5a625a; stroke:none;" d="M204.333 249.667L204.667 250.333L204.333 249.667z" />
	<path style="fill:#5ba75d; stroke:none;" d="M103 250L104 251L103 250z" />
	<path style="fill:#b8bab8; stroke:none;" d="M136 250L140 254L136 250M102 251L102 255L103 255L102 251z" />
	<path style="fill:#5a625a; stroke:none;" d="M103 251L103 256L104 256L103 251z" />
	<path style="fill:#5ba75d; stroke:none;" d="M136 251L137 252L136 251z" />
	<path style="fill:#5a625a; stroke:none;" d="M136.667 252.333L137.333 252.667L136.667 252.333M205 252L205 256L206 256L205 252M138 253L139 254L138 253M139 254L142 256L142 255L139 254z" />
	<path style="fill:#5ba75d; stroke:none;" d="M140 254L141 255L140 254z" />
	<path style="fill:#b8bab8; stroke:none;" d="M141 254L141 255L153 263L141 254z" />
	<path style="fill:#5ba75d; stroke:none;" d="M251 255L252 256L251 255z" />
	<path style="fill:#b8bab8; stroke:none;" d="M103.333 256.667L103.667 257.333L103.333 256.667z" />
	<path style="fill:#5a625a; stroke:none;" d="M143 256L144 257L143 256z" />
	<path style="fill:#5ba75d; stroke:none;" d="M205 256L205 260L206 260L205 256z" />
	<path style="fill:#5a625a; stroke:none;" d="M250 256L251 257L250 256z" />
	<path style="fill:#b8bab8; stroke:none;" d="M251 256L250 259L251 256z" />
	<path style="fill:#5a625a; stroke:none;" d="M104 257L109 262L109 261L104 257M144 257L144 258L149 260L149 259L144 257z" />
	<path style="fill:#5ba75d; stroke:none;" d="M145 257L146 258L145 257M250 257L251 258L250 257z" />
	<path style="fill:#b8bab8; stroke:none;" d="M0 258L0 288L1 288L0 258z" />
	<path style="fill:#5ba75d; stroke:none;" d="M147 258L148 259L147 258z" />
	<path style="fill:#5a625a; stroke:none;" d="M249.333 258.667L249.667 259.333L249.333 258.667z" />
	<path style="fill:#b8bab8; stroke:none;" d="M104 259L105 260L104 259z" />
	<path style="fill:#5ba75d; stroke:none;" d="M105 260L106 261L105 260z" />
	<path style="fill:#5a625a; stroke:none;" d="M149 260L150 261L149 260z" />
	<path style="fill:#b8bab8; stroke:none;" d="M205 260L207 271L208 271L205 260M249 260L245 268C247.915 266.121 249.82 263.503 249 260M105.667 261.333L106.333 261.667L105.667 261.333z" />
	<path style="fill:#5a625a; stroke:none;" d="M150 261L151 262L150 261M248 261L249 262L248 261z" />
	<path style="fill:#b8bab8; stroke:none;" d="M107.667 262.333L108.333 262.667L107.667 262.333z" />
	<path style="fill:#5ba75d; stroke:none;" d="M109 262L110 263L109 262z" />
	<path style="fill:#5a625a; stroke:none;" d="M110 262L110 263L116 264L116 263L110 262M151 262L152 263L151 262M206 262L206 267L207 267L206 262z" />
	<path style="fill:#b8bab8; stroke:none;" d="M110.667 263.333L111.333 263.667L110.667 263.333z" />
	<path style="fill:#5ba75d; stroke:none;" d="M152 263L153 264L152 263z" />
	<path style="fill:#5a625a; stroke:none;" d="M247 263L248 264L247 263z" />
	<path style="fill:#b8bab8; stroke:none;" d="M113 264L113 265L116 265L113 264z" />
	<path style="fill:#5ba75d; stroke:none;" d="M116.667 264.333L117.333 264.667L116.667 264.333z" />
	<path style="fill:#5a625a; stroke:none;" d="M118 264L118 265L133 271L118 264M152 264C152.538 270.333 148.142 270.16 143 270L143 271C147.813 271.363 157.318 271.093 152 264z" />
	<path style="fill:#b8bab8; stroke:none;" d="M153 264L154 265L153 264z" />
	<path style="fill:#5a625a; stroke:none;" d="M246.333 264.667L246.667 265.333L246.333 264.667z" />
	<path style="fill:#b8bab8; stroke:none;" d="M119 265L119 266L122 266L119 265M154 265L154 270L155 270L154 265M122 266L126 269L126 268L122 266z" />
	<path style="fill:#5ba75d; stroke:none;" d="M123 266L124 267L123 266z" />
	<path style="fill:#5a625a; stroke:none;" d="M245 266L246 267L245 266z" />
	<path style="fill:#5ba75d; stroke:none;" d="M124 267L125 268L124 267z" />
	<path style="fill:#5a625a; stroke:none;" d="M207.333 267.667L207.667 268.333L207.333 267.667M235 270L235 271L244 268L235 270z" />
	<path style="fill:#5ba75d; stroke:none;" d="M244 267L245 268L244 267z" />
	<path style="fill:#b8bab8; stroke:none;" d="M242.667 268.333L243.333 268.667L242.667 268.333M126.667 269.333L127.333 269.667L126.667 269.333z" />
	<path style="fill:#5ba75d; stroke:none;" d="M207 269L208 270L207 269z" />
	<path style="fill:#b8bab8; stroke:none;" d="M241 269L242 270L241 269M129 270L129 271L133 272L133 271L129 270z" />
	<path style="fill:#5ba75d; stroke:none;" d="M130 270L131 271L130 270M152 270L151 272L152 270z" />
	<path style="fill:#b8bab8; stroke:none;" d="M153 270L154 271L153 270z" />
	<path style="fill:#5a625a; stroke:none;" d="M208.333 270.667L208.667 271.333L208.333 270.667M225 272L225 273L234 271L225 272z" />
	<path style="fill:#b8bab8; stroke:none;" d="M240 270L241 271L240 270z" />
	<path style="fill:#5ba75d; stroke:none;" d="M133 271L134 272L133 271z" />
	<path style="fill:#5a625a; stroke:none;" d="M134 271L134 272L142 272L134 271z" />
	<path style="fill:#5ba75d; stroke:none;" d="M142 271L143 272L142 271z" />
	<path style="fill:#b8bab8; stroke:none;" d="M143 271L143 272L147 272L143 271z" />
	<path style="fill:#5ba75d; stroke:none;" d="M147 271L148 272L147 271z" />
	<path style="fill:#b8bab8; stroke:none;" d="M152 271L153 272L152 271M228 271L228 272L239 272L228 271M134 272L134 273L141 273L134 272M148 272L148 273L151 273L148 272M208 272L214 276L214 275L208 272z" />
	<path style="fill:#5ba75d; stroke:none;" d="M209 272L210 273L209 272z" />
	<path style="fill:#5a625a; stroke:none;" d="M210 272L214 275L214 274L210 272z" />
	<path style="fill:#b8bab8; stroke:none;" d="M226 272L227 273L226 272z" />
	<path style="fill:#5a625a; stroke:none;" d="M220 274L220 275L224 274L220 274z" />
	<path style="fill:#5ba75d; stroke:none;" d="M224 273L225 274L224 273z" />
	<path style="fill:#b8bab8; stroke:none;" d="M225 273L226 274L225 273z" />
	<path style="fill:#5ba75d; stroke:none;" d="M211 274L212 275L211 274M222 274L223 275L222 274z" />
	<path style="fill:#b8bab8; stroke:none;" d="M223 274L224 275L223 274z" />
	<path style="fill:#5ba75d; stroke:none;" d="M214 275L215 276L214 275z" />
	<path style="fill:#5a625a; stroke:none;" d="M215 275L216 276L215 275z" />
	<path style="fill:#5ba75d; stroke:none;" d="M216 275L216 276L220 276L216 275z" />
	<path style="fill:#b8bab8; stroke:none;" d="M220.667 275.333L221.333 275.667L220.667 275.333z" />
</svg>
